<?xml version="1.0" encoding="UTF-8" standalone="no"?>
<!-- Created with Inkscape (http://www.inkscape.org/) -->

<svg
   xmlns:dc="http://purl.org/dc/elements/1.1/"
   xmlns:cc="http://creativecommons.org/ns#"
   xmlns:rdf="http://www.w3.org/1999/02/22-rdf-syntax-ns#"
   xmlns:svg="http://www.w3.org/2000/svg"
   xmlns="http://www.w3.org/2000/svg"
   xmlns:sodipodi="http://sodipodi.sourceforge.net/DTD/sodipodi-0.dtd"
   xmlns:inkscape="http://www.inkscape.org/namespaces/inkscape"
   width="210mm"
   height="297mm"
   viewBox="0 0 210 297"
   version="1.1"
   id="svg869"
   inkscape:version="0.92.4 (5da689c313, 2019-01-14)"
   sodipodi:docname="drawing3.svg">
  <defs
     id="defs863" />
  <sodipodi:namedview
     id="base"
     pagecolor="#ffffff"
     bordercolor="#666666"
     borderopacity="1.0"
     inkscape:pageopacity="0.0"
     inkscape:pageshadow="2"
     inkscape:zoom="0.35"
     inkscape:cx="-100"
     inkscape:cy="560"
     inkscape:document-units="mm"
     inkscape:current-layer="layer1"
     showgrid="false"
     inkscape:window-width="1440"
     inkscape:window-height="837"
     inkscape:window-x="-8"
     inkscape:window-y="-8"
     inkscape:window-maximized="1" />
  <metadata
     id="metadata866">
    <rdf:RDF>
      <cc:Work
         rdf:about="">
        <dc:format>image/svg+xml</dc:format>
        <dc:type
           rdf:resource="http://purl.org/dc/dcmitype/StillImage" />
        <dc:title></dc:title>
      </cc:Work>
    </rdf:RDF>
  </metadata>
  <g
     inkscape:label="Layer 1"
     inkscape:groupmode="layer"
     id="layer1">
    <path
       style="fill:#151515;fill-opacity:1;stroke:#151515;stroke-width:0;stroke-miterlimit:4;stroke-dasharray:none;stroke-opacity:1"
       d="M 3.156061,82.174387 V 135.36133 H 210.02251 V 82.174387 Z m 131.988839,19.216403 1.60352,1.60404 1.06919,0.8015 0.26717,1.47019 0.93534,1.60352 -0.13332,1.87069 -1.33636,1.47019 -2.53938,1.06919 -1.87068,0.8015 1.33635,0.93534 2.53886,1.06919 h 1.87121 l 0.66817,-0.26717 0.26717,0.53434 0.13384,1.60403 0.13333,0.66818 h 0.53485 l -1.06919,0.66818 -1.47019,0.53433 -3.20704,-1.20251 -2.53938,-0.93586 -1.33635,-1.20251 -0.26717,-0.40101 -0.40101,2.2717 -0.66818,0.66817 -0.40049,-0.53433 -0.80202,0.53433 -0.53433,-0.40049 -0.93586,-1.33635 v -0.40101 l -0.26717,-0.26717 h 0.26717 l 0.13384,-0.93586 1.06919,-5.87974 0.53433,-2.00453 1.47019,0.13384 1.60352,-1.8712 1.06919,-1.73685 z m -15.10088,0.13384 2.53938,0.93535 0.13332,0.53485 0.53485,2.93987 0.93535,3.20704 h 0.66817 l 0.13333,0.66818 0.80202,-0.40101 v 0.53485 l 1.06918,0.13332 -0.40101,0.93535 -1.73736,1.33635 0.53485,1.8712 v 1.06919 l -2.13837,1.60352 h -1.06918 l -0.66818,-0.26717 -0.13332,-1.06918 -1.06919,-0.80203 1.46968,-0.53433 0.53485,-1.06918 -0.93534,-0.13385 -3.60805,0.80202 -0.93586,-2.00453 -1.06867,1.4702 0.13332,2.40502 -1.33635,0.40101 -1.06918,0.66818 -1.20251,-0.40101 v -0.66818 l -0.40101,-0.53433 2.53938,-6.28076 0.13332,-1.33635 2.13837,-3.20704 0.66818,0.26717 1.73684,-1.33636 z m 26.72705,0 1.20303,0.53434 c 0,0 2.00453,-0.13353 2.6727,-0.26717 0.66817,-0.13363 1.73736,-0.26717 1.73736,-0.26717 l 2.2717,0.13384 0.40101,0.4005 h 1.46967 l 2.00453,-0.4005 3.07372,-0.13384 1.33635,0.13384 1.60352,0.66818 0.66818,0.53434 0.53433,0.401 v 0.66818 l -0.66818,0.40101 -1.87068,0.40049 -2.13786,0.13384 -0.26768,1.4702 -0.66818,2.80603 -0.40049,2.13837 -0.93586,2.00453 0.80202,0.13332 h 0.93534 l 0.66818,0.66818 0.13384,1.20303 -0.80202,0.66817 h -0.8015 -1.33635 l 0.13332,0.66818 h -0.93534 l -1.60352,-0.26768 -2.93987,0.80201 -0.93586,-0.80201 -0.93534,-1.73685 0.53485,-0.66817 h 0.8015 0.66817 l 1.87121,-0.53486 0.40049,-0.66817 1.33635,-3.34088 1.06919,-4.14239 h -1.46968 l -0.66817,0.26717 -0.40102,-0.66818 h -0.401 -1.60352 l -4.1429,0.26717 -0.8015,1.33635 -1.20303,2.93988 0.53485,0.80201 -1.87121,2.53887 -0.401,1.73736 0.13384,0.40101 0.93534,0.53433 v 0.66818 l -0.66818,1.20303 h -1.20251 l -0.66817,-0.40101 -0.93535,-0.93535 -0.66817,-1.8712 0.40049,-1.87069 1.4702,-3.47472 0.93534,-2.80603 -1.06919,0.13332 -2.80603,0.40101 h -0.93534 l -0.66818,-1.60352 0.13333,-2.27169 c 0,0 4.67723,-2.1e-4 5.34541,-0.13384 0.66817,-0.13364 0.80202,0 0.80202,0 v -0.26717 l 0.53433,-0.53434 z m 37.01686,0 2.53886,1.06919 0.40101,1.46968 0.13385,2.53938 0.66817,2.40553 h 1.46968 v 0.53434 l 0.80202,0.26717 0.80201,0.13384 -0.13384,0.93534 -1.73736,1.87069 c 0,0 0.13353,0.66828 0.26717,1.73736 0.13363,1.06907 -0.8015,1.20251 -0.8015,1.20251 l -1.87121,1.20303 -0.93534,-0.26717 -0.66818,-0.40101 -0.13332,-0.80202 -0.93586,-0.66818 0.53485,-0.13332 h 0.8015 l 0.66818,-1.20303 -0.53434,-0.26716 -2.00453,0.53433 -1.73736,-0.13333 -0.53433,-0.401 -0.53485,-1.20251 -0.53434,1.06866 -0.40101,0.66818 -0.13332,2.40554 -0.80202,0.40101 -0.66818,0.53433 -1.60351,-0.8015 -0.80202,-0.93534 v -0.66818 l 1.06918,-2.13837 1.73736,-4.14238 v -0.66818 l 1.73736,-3.20755 0.93535,-0.13333 1.46968,-0.93586 z m -11.09131,0.13384 1.20251,0.53434 0.13384,0.40101 h 0.53433 l -0.13384,0.53433 0.80202,0.40101 0.13384,0.66818 -0.93586,1.47019 c 0,0 -2.40523,1.06909 -3.20704,1.33635 -0.80181,0.26728 -1.47019,0.93535 -1.47019,0.93535 l -2.2717,1.60352 -0.8015,0.80202 0.13333,0.66766 -0.53434,0.93586 v 0.66817 l 1.73736,0.40049 4.14239,0.26769 1.8712,-0.26769 -0.13384,0.53485 0.13384,0.26717 0.8015,1.06919 -0.40101,1.06918 -1.06867,0.93535 -2.80654,-0.13384 -2.00453,-0.26717 -3.20704,-0.93534 -1.33635,-1.4702 -1.20303,-2.2717 0.80202,-3.4742 1.87069,-2.27222 c 0,0 2.40553,-1.73725 3.07371,-2.00452 0.66817,-0.26726 2.13837,-1.46968 2.13837,-1.46968 z m -70.13422,0.23358 0.40101,1.06919 0.93534,0.26716 v 0.53434 l -0.13384,0.53485 0.80202,0.40049 -0.66818,0.80202 -3.60805,1.73736 -4.677231,3.87522 -1.203029,2.40554 h 2.405539 l 0.802018,-0.13385 4.677233,-1.33635 -0.40101,-0.26717 0.13332,-0.26716 -0.26716,-1.33636 h -0.66818 l 0.53485,-0.66817 1.73685,-1.33635 2.80655,1.87068 2.13837,1.4702 v 1.73736 c 0,0 -2.13858,1.60341 -2.94039,1.87069 -0.80182,0.26725 -4.9444,1.87068 -4.9444,1.87068 l -2.405541,0.40101 -2.672705,-0.13332 -2.939872,-1.06919 -1.20251,-3.34088 0.668176,-2.93987 2.80603,-3.47473 4.677233,-3.07371 1.871209,-1.06867 z m -69.197329,0.30076 0.8015,0.40101 3.608049,1.46968 1.203028,0.66817 3.207039,2.00453 c 0,0 2.138061,2.80655 2.271696,3.47472 0.133633,0.66818 -1.736846,2.53887 -1.736846,2.53887 0,0 -2.672914,2.40574 -3.474723,2.53938 -0.801807,0.13364 -1.870686,0.40049 -1.870686,0.40049 l -4.009057,1.8712 -1.336355,-0.93534 0.401011,-2.6727 1.469678,-5.34542 -0.935344,-2.93987 0.802018,-0.40101 -0.802018,-1.06918 z m -4.65553,0.13901 h 0.668176 l 0.534334,0.40101 h 0.668176 l -0.267166,0.40101 0.534334,0.40049 h 0.668176 l 0.133841,1.20303 -2.004527,1.46967 h -1.203028 l -1.736845,0.66818 h -1.470195 l -1.603519,0.26768 v 1.20252 l 2.405538,-0.13385 2.271696,0.93586 h 1.069185 l -0.802018,1.33636 -3.875216,1.60352 h -1.871204 l -2.004528,1.87068 3.207556,0.53434 2.271696,-0.13333 2.271696,-0.80202 0.133842,0.93535 1.20251,0.66817 v 1.87121 c 0,0 -4.14249,0.53433 -5.211568,0.53433 -1.069078,0 -4.811076,-0.13332 -4.811076,-0.13332 L 18.41973,114.76 l -0.267684,-1.73736 2.539379,-4.27623 c 0,0 -0.267479,-2.53897 -0.802018,-2.93987 v -0.93586 l 2.004529,-0.40049 2.138371,-0.40101 1.870687,-0.40101 z m 52.823649,0.15038 2.271697,1.60352 0.401008,1.87068 -0.401008,2.53938 -0.133326,2.80603 0.668176,1.33636 2.004528,-2.40502 1.20251,-5.07825 0.267168,-0.80202 0.534853,-1.87068 0.8015,0.53433 1.069186,0.80202 0.802018,1.46968 -0.534852,1.33635 -0.400492,1.60404 -0.668176,3.4742 -0.668176,2.80655 -0.802018,1.46968 -2.004529,1.47019 -1.069186,-0.66817 -0.935342,-0.26717 -1.870689,-2.00453 -0.93586,-1.20303 -1.068668,2.13837 -0.267684,1.33636 -0.8015,0.53433 -0.40101,0.40101 -1.336353,-1.06919 -1.069186,-2.00452 h 0.40101 l -0.40101,-1.06867 0.802018,-1.73737 1.737363,-3.47472 z m -18.744591,0.26303 1.20251,0.40101 0.401008,0.8015 1.203028,0.26717 c 0,0 -5.29e-4,2.00443 -0.267684,2.93987 -0.267271,0.93545 -1.20251,3.07403 -1.20251,3.60857 0,0.53454 -3.207041,4.67723 -3.207041,4.67723 l -1.470194,2.13785 -2.405536,0.40101 -1.202513,-1.60352 -1.336352,-2.13837 c 0,0 -2.539072,1.871 -3.340882,2.40554 -0.801809,0.53454 -2.939873,1.06918 -2.939873,1.06918 l -1.470194,-0.401 -1.20251,-1.4702 -0.668176,-3.34088 1.20251,-5.47874 2.405539,-4.00905 0.534334,1.06918 1.069184,-0.13384 0.133842,0.66818 0.668176,0.26716 -1.069184,1.73737 -1.336352,4.41006 v 2.80603 l 2.405536,-1.46967 3.60805,-5.34542 1.470194,-2.53886 0.534334,0.13333 0.668179,-0.13333 v 0.66766 l 0.802018,0.26769 v 1.46967 c 0,0 -0.668383,3.07352 -0.802018,3.60805 -0.133633,0.53454 0.133842,2.53938 0.133842,2.53938 l 1.068668,-0.40101 1.73736,-1.87068 0.802018,-1.87121 z m 6.537584,0.27234 h 6.815087 l 0.935345,0.53485 0.267684,0.53433 h 0.801502 l 0.13384,0.66818 -0.802018,0.93534 -2.806028,0.40101 -1.203029,0.13384 -0.668176,2.53886 -0.668176,2.93988 -1.20251,2.80654 1.469675,-0.26716 0.534853,0.53433 0.935344,0.93534 -1.069186,1.4702 -1.469679,0.13332 -1.203026,0.53485 -0.801502,-0.401 -2.940389,0.53433 -1.60352,-0.13333 -0.935342,-1.33635 0.133842,-1.47019 h 3.608046 l 1.603521,-3.60805 1.336352,-4.9444 h -2.672704 l -0.133842,-0.80202 -0.668176,-0.26717 -0.133327,-0.53433 -0.267165,-1.20303 1.20251,-0.40049 z m 65.150547,2.64996 -2.13837,2.00453 -0.53434,1.06867 1.4702,-0.40049 2.40502,-0.80202 z m -98.305631,0.8015 -0.8015,6.68177 c 0,0 2.405333,-0.53465 2.939873,-1.06919 0.534514,-0.53454 2.93987,-2.00453 2.93987,-2.00453 l -1.069184,-1.46968 -2.137854,-1.73736 z m 147.616831,0.66818 -2.40554,3.47472 3.20756,-0.40101 z m -63.74391,0.13384 -2.53886,3.34088 3.34088,-0.53485 z"
       id="rect864"
       inkscape:connector-curvature="0"
       sodipodi:nodetypes="cccccccccccccccccccccccccccccccccccccccccccccccccccccccccccccccccccccccccccccccccccccccccccccccccccccccccccccccccccccccccccccccccccccccccccccccccccccccccccccccccccccccccccccccccccccccccccccccccccccccccccsccccccccccccccccccccccccccccccccccccccccccccccccccccccccccccccccsccccccccccccccccccccccccccccccccccccsccccccccccccccccccccccccccccccccccccccccccccccccsscccccsccccccccccccccccccccccccccccccccccccccccccccccccccccccccccccccccccccccccccccccccc" />
    <g
       id="g870"
       style="fill:#ffffff;fill-opacity:1;stroke:#ffffff;stroke-width:0.1;stroke-miterlimit:4;stroke-dasharray:none;stroke-opacity:1"
       transform="translate(29.473359,-116.68429)">
      <g
         id="g855"
         style="fill:#ffffff;fill-opacity:1;stroke:#ffffff;stroke-width:0.1;stroke-miterlimit:4;stroke-dasharray:none;stroke-opacity:1">
        <path
           style="fill:#ffffff;fill-opacity:1;stroke:#ffffff;stroke-width:0.1;stroke-linecap:butt;stroke-linejoin:miter;stroke-miterlimit:4;stroke-dasharray:none;stroke-opacity:1"
           d="m 0.17157198,214.07207 -2.80654918,1.33635 -1.8706861,0.40049 -2.1383704,0.40101 -2.0045283,0.40101 v 0.93534 c 0.5345377,0.4009 0.8020182,2.93987 0.8020182,2.93987 l -0.6392386,1.07642 8.10389897,0.83458 0.41961329,-0.17363 0.80201769,-1.33635 h -1.069186 l -2.27169655,-0.93535 -2.4055361,0.13384 v -1.20303 l 1.6035178,-0.26716 h 1.470197 l 1.73735997,-0.66818 H 1.1069145 l 2.0045289,-1.47019 -0.1333252,-1.20251 H 2.3099419 l -0.534851,-0.40101 0.267167,-0.40101 H 1.3740818 l -0.53433425,-0.40049 z"
           id="path921"
           inkscape:connector-curvature="0" />
        <path
           style="fill:#ffffff;fill-opacity:1;stroke:#ffffff;stroke-width:0.1;stroke-linecap:butt;stroke-linejoin:miter;stroke-miterlimit:4;stroke-dasharray:none;stroke-opacity:1"
           d="m 4.8276176,213.93306 -0.4010091,2.00452 0.8020182,1.06919 -0.8020182,0.40101 0.9353434,2.93987 -0.7549925,2.7466 2.4107055,0.24857 0.615983,-5.13354 1.8712037,0.40101 2.1378544,1.73736 1.069185,1.46968 c 0,0 -1.973952,1.20795 -2.7367841,1.83038 l 4.5604451,0.46922 c 0.534273,-0.57882 1.479993,-1.68268 1.383378,-2.16576 -0.133636,-0.66817 -2.271696,-3.47472 -2.271696,-3.47472 l -3.207039,-2.00453 -1.2030274,-0.66818 -3.6080485,-1.46967 z"
           id="path923"
           inkscape:connector-curvature="0" />
        <path
           style="fill:#ffffff;fill-opacity:1;stroke:#ffffff;stroke-width:0.1;stroke-linecap:butt;stroke-linejoin:miter;stroke-miterlimit:4;stroke-dasharray:none;stroke-opacity:1"
           d="m 34.250627,214.48496 -1.870686,6.14743 -0.802018,1.87069 -1.736845,1.8712 -1.069186,0.40049 c 0,0 -0.267475,-2.00432 -0.133842,-2.53886 0.133636,-0.53454 0.802019,-3.60805 0.802019,-3.60805 v -1.47019 L 28.63805,216.8905 v -0.66818 l -0.668176,0.13385 -0.534334,-0.13385 -1.470195,2.53938 -3.608048,5.34489 -0.954981,0.58343 11.929505,1.22887 c 0.948049,-1.26752 2.255159,-3.06955 2.255159,-3.41581 0,-0.53454 0.935756,-2.6726 1.203028,-3.60805 0.267269,-0.93544 0.267167,-2.93987 0.267167,-2.93987 l -1.202511,-0.26717 -0.401009,-0.80202 z m -14.298868,0.26769 -2.405021,4.00905 -1.187524,5.40897 3.592545,0.37001 v -1.77044 l 1.336352,-4.40955 1.069186,-1.73736 -0.668176,-0.26716 -0.133843,-0.66818 -1.068668,0.13332 z"
           id="path925"
           inkscape:connector-curvature="0" />
        <path
           style="fill:#ffffff;fill-opacity:1;stroke:#ffffff;stroke-width:0.1;stroke-linecap:butt;stroke-linejoin:miter;stroke-miterlimit:4;stroke-dasharray:none;stroke-opacity:1"
           d="m 40.788213,214.75781 -1.470195,0.26717 -1.20251,0.40101 0.267167,1.20251 0.133842,0.53485 0.668176,0.26717 0.133325,0.80202 h 2.672706 l -1.336353,4.9444 -1.591117,3.58014 6.212023,0.63975 -0.879016,-0.87901 -0.534334,-0.53485 -1.470195,0.26716 1.203028,-2.80603 0.668176,-2.93987 0.668176,-2.53938 1.202511,-0.13332 2.80603,-0.40101 0.802018,-0.93534 -0.133842,-0.66818 h -0.801501 l -0.267167,-0.53485 -0.935344,-0.53434 z"
           id="path927"
           inkscape:connector-curvature="0" />
        <path
           style="fill:#ffffff;fill-opacity:1;stroke:#ffffff;stroke-width:0.37795275;stroke-linecap:butt;stroke-linejoin:miter;stroke-miterlimit:4;stroke-dasharray:none;stroke-opacity:1"
           d="m 200.29883,-123.88477 -10.60742,22.22266 -6.56641,13.132813 -3.0293,6.566406 1.51368,4.041016 h -1.51368 l 3.28516,6.162109 10.4668,1.339844 0.89453,-4.472656 4.04101,-8.080078 3.53516,4.544922 7.07031,7.576172 3.53711,1.009765 3.75586,2.347656 0.44727,0.05859 7.41211,-5.435547 3.03125,-5.55664 2.52539,-10.607422 2.52539,-13.13086 1.51562,-6.06054 2.01953,-5.05078 -3.02929,-5.55664 -4.04102,-3.03125 -3.03125,-2.01954 -2.01953,7.07032 -1.00977,3.03125 -4.54687,19.193352 -7.57617,9.091797 -2.52539,-5.050781 0.50586,-10.607418 1.51562,-9.5957 -1.51562,-7.07227 z"
           transform="matrix(0.26458333,0,0,0.26458333,0,247)"
           id="path929"
           inkscape:connector-curvature="0" />
        <path
           inkscape:connector-curvature="0"
           id="path931"
           d="m 74.024481,213.63196 -1.33635,0.40091 -1.87088,1.06908 -4.67721,3.0736 -2.806329,3.4745 -0.668173,2.93996 1.202714,3.34087 2.939958,1.06908 2.6727,0.13364 2.40542,-0.40091 c 0,0 4.14267,-1.60362 4.94449,-1.87088 0.80181,-0.26727 2.93997,-1.87089 2.93997,-1.87089 v -1.73725 l -2.13816,-1.46999 -2.80634,-1.87088 -1.73725,1.33635 -0.53454,0.66817 h 0.66817 l 0.26727,1.33635 -0.13363,0.26727 0.4009,0.26726 -4.6772,1.33635 -0.80181,0.13364 h -2.405428 l 1.202718,-2.40543 4.6772,-3.87541 3.60814,-1.73725 0.66817,-0.80181 -0.8018,-0.4009 0.13363,-0.53454 v -0.53454 l -0.93544,-0.26727 z"
           style="fill:#ffffff;fill-opacity:1;stroke:#ffffff;stroke-width:0.1;stroke-linecap:butt;stroke-linejoin:miter;stroke-miterlimit:4;stroke-dasharray:none;stroke-opacity:1" />
      </g>
      <g
         transform="translate(26.994223,6.1471987)"
         id="g990"
         style="fill:#ffffff;fill-opacity:1;stroke:#ffffff;stroke-width:0.1;stroke-miterlimit:4;stroke-dasharray:none;stroke-opacity:1">
        <path
           id="path982"
           d="m 64.512148,207.11748 -1.06919,1.73736 -1.73684,1.33635 -0.66818,-0.26716 -2.13837,3.20704 -0.13332,1.33635 -2.53938,6.28075 0.40101,0.53434 v 0.66817 l 1.20251,0.40101 1.06918,-0.66818 1.33635,-0.401 -0.13332,-2.40503 1.06867,-1.47019 0.93586,2.00453 3.60805,-0.80202 0.93534,0.13384 -0.53485,1.06919 -1.46968,0.53433 1.06919,0.80202 0.13332,1.06919 0.66818,0.26716 h 1.06918 l 2.13837,-1.60352 v -1.06918 l -0.53485,-1.8712 1.73736,-1.33636 0.40101,-0.93534 -1.06918,-0.13333 v -0.53485 l -0.80202,0.40101 -0.13333,-0.66817 h -0.66817 l -0.93535,-3.20704 -0.53485,-2.93988 -0.13332,-0.53485 z m 0,5.74642 0.80202,2.80603 -3.34089,0.53485 z"
           style="fill:#ffffff;fill-opacity:1;stroke:#ffffff;stroke-width:0.1;stroke-linecap:butt;stroke-linejoin:miter;stroke-miterlimit:4;stroke-dasharray:none;stroke-opacity:1"
           inkscape:connector-curvature="0" />
        <path
           id="path984"
           d="m 79.613038,206.98364 -2.2717,0.93586 -1.06919,1.73684 -1.60351,1.87121 -1.4702,-0.13385 -0.53434,2.00453 -1.06918,5.87975 -0.13384,0.93586 h -0.26717 l 0.26717,0.26716 v 0.40101 l 0.93586,1.33636 0.53433,0.40049 0.80202,-0.53434 0.40049,0.53434 0.66818,-0.66818 0.40101,-2.27169 0.26717,0.40101 1.33635,1.20251 2.53938,0.93586 3.20704,1.20251 1.47019,-0.53434 1.06919,-0.66817 h -0.53485 l -0.13333,-0.66818 -0.13384,-1.60404 -0.26717,-0.53433 -0.66818,0.26717 h -1.8712 l -2.53886,-1.06919 -1.33635,-0.93534 1.87068,-0.8015 2.53938,-1.06919 1.33635,-1.47019 0.13333,-1.87069 -0.93534,-1.60352 -0.26717,-1.47019 -1.06919,-0.80151 z m -0.66818,4.27674 1.20251,1.87069 -2.40502,0.80201 -1.4702,0.4005 0.53434,-1.06867 z"
           style="fill:#ffffff;fill-opacity:1;stroke:#ffffff;stroke-width:0.1;stroke-linecap:butt;stroke-linejoin:miter;stroke-miterlimit:4;stroke-dasharray:none;stroke-opacity:1"
           inkscape:connector-curvature="0" />
        <path
           style="fill:#ffffff;fill-opacity:1;stroke:#ffffff;stroke-width:0.37795275;stroke-linecap:butt;stroke-linejoin:miter;stroke-miterlimit:4;stroke-dasharray:none;stroke-opacity:1"
           d="m 344.8418,-150.73633 -1.00977,0.50391 -2.02148,2.02148 v 1.00977 c 0,0 -0.50397,-0.5051 -3.0293,0 -2.5254,0.50506 -20.20312,0.5039 -20.20313,0.5039 l -0.50585,8.58789 2.52539,6.06055 h 3.53515 l 10.60742,-1.51562 4.04102,-0.50586 -3.53711,10.60742 -5.55469,13.13281 -1.51562,7.07031 2.52539,7.070317 3.53516,3.535156 2.52539,1.515625 h 4.54687 l 2.52539,-4.544922 v -2.52539 l -3.53711,-2.021486 -0.5039,-1.51367 1.51562,-6.56641 7.07031,-9.5957 -2.01953,-3.03125 4.54492,-11.11133 3.0293,-5.05078 15.6582,-1.00977 h 6.06055 1.51563 l 1.51562,2.5254 2.52539,-1.01172 h 5.55469 l -4.03906,15.6582 -5.05078,12.62695 -1.51563,2.52539 -7.07227,2.01954 h -2.52539 -3.02929 l -2.02149,2.52539 3.53711,6.566402 3.53516,3.03125 11.11133,-3.03125 6.06054,1.009766 h 3.53516 l -0.50391,-2.525391 h 5.05078 3.0293 l 3.03125,-2.525391 -0.50586,-4.544926 -2.52539,-2.52539 h -3.53516 l -3.02929,-0.50586 3.53515,-7.57617 1.51563,-8.08008 2.52539,-10.60742 1.00977,-5.55469 8.08007,-0.50585 7.07227,-1.51563 2.52539,-1.51562 v -1.94727 l -58.0332,-5.97852 c -3.07998,0.44798 -9.14258,0.85547 -9.14258,0.85547 z"
           transform="matrix(0.26458333,0,0,0.26458333,0,247)"
           id="path986"
           inkscape:connector-curvature="0" />
        <path
           style="fill:#ffffff;fill-opacity:1;stroke:#ffffff;stroke-width:0.37795275;stroke-linecap:butt;stroke-linejoin:miter;stroke-miterlimit:4;stroke-dasharray:none;stroke-opacity:1"
           d="m 469.13281,-137.83594 -5.59765,10.33399 v 2.52539 l -6.56641,15.65625 -4.04102,8.08203 v 2.525389 l 3.03125,3.535157 6.06055,3.029296 2.52539,-2.019531 3.03125,-1.515625 0.50391,-9.091796 1.51562,-2.52539 2.01953,-4.03906 2.02149,4.54492 2.01953,1.51562 6.56641,0.50391 7.57617,-2.01953 2.01953,1.00976 -2.52539,4.54688 h -3.0293 l -2.02148,0.5039 3.53711,2.525396 0.5039,3.03125 2.52539,1.515625 3.53516,1.009765 7.07227,-4.546875 c 0,0 3.53435,-0.504342 3.02929,-4.544921 -0.50509,-4.04062 -1.00976,-6.56641 -1.00976,-6.56641 l 6.5664,-7.07031 0.50586,-3.53516 -3.03125,-0.50586 -3.03125,-1.00976 v -2.01953 h -5.55469 l -2.52539,-9.0918 -0.18554,-3.50781 z m 15.61524,8.3125 3.03125,11.61719 -12.12305,1.51563 z"
           transform="matrix(0.26458333,0,0,0.26458333,0,247)"
           id="path988"
           inkscape:connector-curvature="0" />
        <path
           style="fill:#ffffff;fill-opacity:1;stroke:#ffffff;stroke-width:0.37795275;stroke-linecap:butt;stroke-linejoin:miter;stroke-miterlimit:4;stroke-dasharray:none;stroke-opacity:1"
           d="m 429.53906,-142.46484 c -0.89183,0.5804 -1.7296,1.06763 -2.37109,1.32422 -2.52544,1.01015 -11.61524,7.57617 -11.61524,7.57617 l -7.07226,8.58593 -3.0293,13.13282 4.54492,8.58593 5.05079,5.554692 12.12109,3.537109 7.57617,1.009766 10.60742,0.503906 4.04102,-3.535156 1.51562,-4.041017 -3.03125,-4.03906 -0.50586,-1.01172 0.50586,-2.01953 -7.07031,1.00976 -15.6582,-1.00976 -6.56641,-1.51563 v -2.52539 l 2.02149,-3.53515 -0.50586,-2.52539 3.03125,-3.0293 8.58593,-6.0625 c 0,0 2.52423,-2.525 5.55469,-3.53516 3.03046,-1.01015 12.12305,-5.05078 12.12305,-5.05078 l 3.18945,-5.01172 z"
           transform="matrix(0.26458333,0,0,0.26458333,0,247)"
           id="path990"
           inkscape:connector-curvature="0" />
      </g>
    </g>
  </g>
</svg>
