<?xml version="1.0" encoding="UTF-8" standalone="no"?>
<!-- Created with Inkscape (http://www.inkscape.org/) -->

<svg
   xmlns:dc="http://purl.org/dc/elements/1.1/"
   xmlns:cc="http://creativecommons.org/ns#"
   xmlns:rdf="http://www.w3.org/1999/02/22-rdf-syntax-ns#"
   xmlns:svg="http://www.w3.org/2000/svg"
   xmlns="http://www.w3.org/2000/svg"
   xmlns:xlink="http://www.w3.org/1999/xlink"
   xmlns:sodipodi="http://sodipodi.sourceforge.net/DTD/sodipodi-0.dtd"
   xmlns:inkscape="http://www.inkscape.org/namespaces/inkscape"
   width="250"
   height="250"
   viewBox="0 0 66.145832 66.145835"
   version="1.1"
   id="svg948"
   inkscape:version="0.92.4 (5da689c313, 2019-01-14)"
   sodipodi:docname="drawing2.svg">
  <defs
     id="defs942">
    <linearGradient
       inkscape:collect="always"
       id="linearGradient2315">
      <stop
         style="stop-color:#b2b2b2;stop-opacity:1"
         offset="0"
         id="stop2311" />
      <stop
         style="stop-color:#e5e5e5;stop-opacity:0.76884425"
         offset="1"
         id="stop2313" />
    </linearGradient>
    <linearGradient
       inkscape:collect="always"
       id="linearGradient2297">
      <stop
         style="stop-color:#fe7a1c;stop-opacity:0.91457283"
         offset="0"
         id="stop2293" />
      <stop
         style="stop-color:#e5e5e5;stop-opacity:0.38693467"
         offset="1"
         id="stop2295" />
    </linearGradient>
    <linearGradient
       inkscape:collect="always"
       xlink:href="#linearGradient2297"
       id="linearGradient2301"
       gradientUnits="userSpaceOnUse"
       x1="8.186861"
       y1="263.25717"
       x2="62.505928"
       y2="262.72266" />
    <linearGradient
       inkscape:collect="always"
       xlink:href="#linearGradient2315"
       id="linearGradient2317"
       x1="40.491333"
       y1="271.80981"
       x2="61.872894"
       y2="271.67618"
       gradientUnits="userSpaceOnUse" />
  </defs>
  <sodipodi:namedview
     id="base"
     pagecolor="#ffffff"
     bordercolor="#666666"
     borderopacity="1.0"
     inkscape:pageopacity="0.0"
     inkscape:pageshadow="2"
     inkscape:zoom="1.979899"
     inkscape:cx="10.570994"
     inkscape:cy="119.00726"
     inkscape:document-units="mm"
     inkscape:current-layer="layer1"
     showgrid="false"
     units="px"
     inkscape:snap-global="false"
     inkscape:window-width="1440"
     inkscape:window-height="837"
     inkscape:window-x="-8"
     inkscape:window-y="-8"
     inkscape:window-maximized="1" />
  <metadata
     id="metadata945">
    <rdf:RDF>
      <cc:Work
         rdf:about="">
        <dc:format>image/svg+xml</dc:format>
        <dc:type
           rdf:resource="http://purl.org/dc/dcmitype/StillImage" />
        <dc:title />
      </cc:Work>
    </rdf:RDF>
  </metadata>
  <g
     inkscape:label="Layer 1"
     inkscape:groupmode="layer"
     id="layer1"
     transform="translate(0,-230.85415)">
    <rect
       style="fill:url(#linearGradient2301);fill-opacity:1;stroke:#171513;stroke-width:0;stroke-miterlimit:4;stroke-dasharray:none;stroke-opacity:1"
       id="rect819"
       width="31.734789"
       height="31.601156"
       x="2.4405673"
       y="248.65933" />
    <rect
       style="fill:url(#linearGradient2317);fill-opacity:1;stroke:#171513;stroke-width:0;stroke-miterlimit:4;stroke-dasharray:none;stroke-opacity:1"
       id="rect821"
       width="32.60688"
       height="30.335091"
       x="29.266012"
       y="256.50864" />
    <path
       style="fill:#000000;fill-opacity:1;stroke:#171513;stroke-width:0.75590552;stroke-miterlimit:4;stroke-dasharray:none;stroke-opacity:1"
       d="M -15 -2.8574219 L -15 272.14258 L 277.14258 272.14258 L 277.14258 -2.8574219 L -15 -2.8574219 z M 170.06641 74.578125 L 188.63867 78.863281 L 189.35156 82.433594 L 190.06641 91.005859 L 192.20898 107.43359 L 197.92383 128.14844 L 204.35156 126.00586 L 205.06641 129.57812 L 211.49414 130.29102 L 213.63867 133.86328 L 217.92383 135.29102 L 210.78125 141.7207 L 203.63867 149.57812 L 206.49414 157.43359 L 205.06641 163.14844 L 200.78125 172.43359 L 191.49414 180.29102 L 185.06641 181.00586 L 181.49414 178.86328 L 175.06641 176.7207 L 176.49414 175.29102 L 177.20898 172.43359 L 172.92383 170.29102 L 168.63867 166.7207 L 170.78125 164.57812 L 176.49414 163.14844 L 181.49414 161.7207 L 181.49414 157.43359 L 180.06641 153.86328 L 174.35156 155.29102 L 165.78125 157.43359 L 159.35156 157.43359 L 153.63867 158.14844 L 150.78125 156.00586 L 147.92383 152.43359 L 146.49414 147.43359 L 144.35156 151.7207 L 141.49414 151.7207 L 142.20898 154.57812 L 138.63867 158.14844 L 135.78125 165.29102 L 135.78125 174.57812 L 133.63867 175.29102 L 129.35156 176.7207 L 131.49414 181.7207 L 127.20898 180.29102 L 123.63867 180.29102 L 120.06641 177.43359 L 114.35156 173.86328 L 112.20898 167.43359 L 110.78125 166.7207 L 111.49414 165.29102 L 115.06641 158.14844 L 123.63867 136.7207 L 131.49414 119.57812 L 130.78125 118.14844 L 135.06641 109.57812 L 145.06641 93.863281 L 147.20898 93.863281 L 150.78125 94.578125 L 153.63867 92.433594 L 160.78125 88.148438 L 170.06641 74.578125 z M 97.923828 76.005859 L 107.92383 76.005859 L 118.63867 84.578125 L 118.63867 88.148438 L 117.20898 91.005859 L 109.35156 97.433594 L 89.351562 101.7207 L 75.78125 104.57812 L 67.208984 107.43359 L 60.78125 109.57812 L 65.066406 114.57812 L 78.638672 116.00586 L 85.78125 115.29102 L 90.78125 113.86328 L 99.351562 111.7207 L 97.208984 116.7207 L 98.638672 122.43359 L 96.494141 127.43359 L 102.92383 126.00586 C 102.19247 129.66263 101.82143 130.10898 97.923828 131.00586 L 90.066406 137.43359 L 78.638672 139.57812 L 67.208984 139.57812 L 62.208984 139.57812 L 55.78125 138.86328 L 48.638672 154.57812 L 59.351562 156.00586 L 73.638672 153.86328 L 77.923828 155.29102 L 84.351562 151.7207 L 90.066406 151.7207 L 97.208984 149.57812 L 99.351562 151.00586 L 104.35156 156.00586 L 107.20898 158.14844 L 108.63867 161.7207 L 109.35156 163.14844 L 102.92383 172.43359 L 92.208984 176.7207 L 72.208984 178.86328 L 71.494141 178.14844 L 50.78125 181.7207 L 39.351562 181.00586 L 30.78125 174.57812 L 27.208984 168.14844 L 24.351562 148.86328 L 27.923828 143.86328 L 30.78125 138.14844 L 36.494141 129.57812 C 40.034854 113.64497 39.340307 115.17633 32.208984 98.863281 L 32.923828 94.578125 L 50.78125 85.291016 L 59.351562 83.863281 L 77.923828 79.578125 C 77.923828 79.578125 95.066683 76.005859 97.923828 76.005859 z M 167.20898 111.7207 L 156.49414 128.14844 L 150.78125 136.00586 L 162.20898 134.57812 L 172.92383 133.14844 L 174.35156 133.14844 L 167.20898 111.7207 z "
       id="rect1565"
       transform="matrix(0.26458333,0,0,0.26458333,0,230.85415)" />
    <g
       id="g1607"
       style="fill:#ffffff;fill-opacity:1;stroke:#fffcfc;stroke-opacity:1"
       transform="translate(-70.681548,5.4806548)">
      <path
         sodipodi:nodetypes="csccccccccccccccccccccccccccccccccccccccccccccccccccccc"
         inkscape:connector-curvature="0"
         id="path1500-6"
         d="m 100.78338,243.55876 h -2.645831 c -0.755953,0 -5.291667,0.94494 -5.291667,0.94494 l -4.913691,1.13392 -2.267857,0.37798 -4.724702,2.45685 -0.188988,1.13392 c 1.886829,4.31616 2.070742,3.91084 1.133928,8.12649 l -1.511904,2.26786 -0.755953,1.51191 -0.94494,1.32291 0.755952,5.10268 0.944941,1.70089 2.267857,1.70089 3.023809,0.18899 5.480655,-0.94494 0.188988,0.18899 5.291667,-0.56696 2.834822,-1.13393 1.700894,-2.45685 -0.18899,-0.37797 -0.37798,-0.94494 -0.755949,-0.56697 -1.322916,-1.32292 -0.566965,-0.37797 -1.889881,0.56696 h -1.511904 l -1.700893,0.94494 -1.133929,-0.37797 -3.779762,0.56696 -2.834821,-0.37797 1.889881,-4.15774 1.700893,0.18899 h 1.322916 3.02381 l 3.023809,-0.56697 2.07887,-1.70089 c 1.031241,-0.2373 1.129411,-0.3554 1.322917,-1.32292 l -1.700893,0.37798 1.322915,-1.88988 -1.133928,-0.94494 0.566964,-1.32291 -2.267857,0.56696 -1.322916,0.37797 -1.889881,0.18899 -3.590774,-0.37798 -1.133929,-1.32291 1.700893,-0.56697 2.267857,-0.75595 3.590774,-0.75595 5.291669,-1.13393 2.07887,-1.70089 0.37797,-0.75596 v -0.94494 z"
         style="fill:#ffffff;fill-opacity:1;stroke:#fffcfc;stroke-width:0.26458332px;stroke-linecap:butt;stroke-linejoin:miter;stroke-opacity:1" />
      <path
         id="path1502-9"
         transform="matrix(0.26458333,0,0,0.26458333,0,230.85415)"
         d="m 443.05664,46.587891 -9.28516,13.572265 -7.14453,4.285156 -2.85547,2.142579 -3.57226,-0.712891 h -2.14258 l -10,15.712891 -4.28516,8.572265 0.7129,1.427735 -7.85743,17.144529 -8.57031,21.42774 -3.57226,7.14257 -0.7129,1.42969 1.42774,0.71289 2.14258,6.42969 5.71484,3.57031 3.57031,2.85742 h 3.57227 l 4.28516,1.42969 -2.14258,-5 4.28515,-1.42969 2.14453,-0.71484 v -9.28516 l 2.85547,-7.14257 3.57227,-3.57227 -0.71484,-2.85547 h 2.85742 l 2.14258,-4.28711 1.42968,5 2.85742,3.57227 2.85547,2.14258 5.71485,-0.71485 h 6.42968 l 8.57032,-2.14258 5.71484,-1.42773 1.42774,3.57031 v 4.28711 l -5,1.42774 -5.7129,1.42773 -2.14453,2.14453 4.28711,3.57031 4.28516,2.14258 -0.71484,2.85742 -1.42774,1.42969 6.42774,2.14258 3.57226,2.14258 6.42774,-0.71485 9.2871,-7.85742 4.28516,-9.28515 1.42774,-5.71485 -2.85743,-7.85742 7.14453,-7.85547 7.14258,-6.42969 -4.28711,-1.42773 -2.14257,-3.57227 -6.42774,-0.71484 -0.71484,-3.570312 -6.42774,2.142582 -5.71484,-20.714848 -2.14258,-16.427734 -0.71484,-8.572266 -0.71485,-3.570312 z m -2.85742,37.144531 7.14258,21.427738 h -1.42774 l -10.71484,1.42773 -11.42774,1.42969 5.7129,-7.85742 z"
         style="fill:#ffffff;fill-opacity:1;stroke:#fffcfc;stroke-width:0.99999994px;stroke-linecap:butt;stroke-linejoin:miter;stroke-opacity:1"
         inkscape:connector-curvature="0" />
    </g>
  </g>
</svg>
