<?xml version="1.0" encoding="UTF-8" standalone="no"?>
<!-- Created with Inkscape (http://www.inkscape.org/) -->

<svg
   xmlns:dc="http://purl.org/dc/elements/1.1/"
   xmlns:cc="http://creativecommons.org/ns#"
   xmlns:rdf="http://www.w3.org/1999/02/22-rdf-syntax-ns#"
   xmlns:svg="http://www.w3.org/2000/svg"
   xmlns="http://www.w3.org/2000/svg"
   xmlns:sodipodi="http://sodipodi.sourceforge.net/DTD/sodipodi-0.dtd"
   xmlns:inkscape="http://www.inkscape.org/namespaces/inkscape"
   width="350.89999"
   height="70"
   viewBox="0 0 92.842288 18.520833"
   version="1.1"
   id="svg8"
   inkscape:version="0.92.3 (2405546, 2018-03-11)"
   sodipodi:docname="drawing.svg">
  <defs
     id="defs2" />
  <sodipodi:namedview
     id="base"
     pagecolor="#ffffff"
     bordercolor="#666666"
     borderopacity="1.0"
     inkscape:pageopacity="0.0"
     inkscape:pageshadow="2"
     inkscape:zoom="0.9899495"
     inkscape:cx="52.134063"
     inkscape:cy="179.40069"
     inkscape:document-units="mm"
     inkscape:current-layer="layer1"
     showgrid="false"
     inkscape:window-width="2560"
     inkscape:window-height="1377"
     inkscape:window-x="-8"
     inkscape:window-y="-8"
     inkscape:window-maximized="1"
     units="px"
     inkscape:snap-global="false" />
  <metadata
     id="metadata5">
    <rdf:RDF>
      <cc:Work
         rdf:about="">
        <dc:format>image/svg+xml</dc:format>
        <dc:type
           rdf:resource="http://purl.org/dc/dcmitype/StillImage" />
        <dc:title></dc:title>
      </cc:Work>
    </rdf:RDF>
  </metadata>
  <g
     inkscape:label="Layer 1"
     inkscape:groupmode="layer"
     id="layer1"
     transform="translate(0,-278.47919)">
    <g
       style="fill:#ffffff;fill-opacity:0;stroke:#151515;stroke-width:0.1;stroke-miterlimit:4;stroke-dasharray:none;stroke-opacity:1"
       id="g1559"
       transform="translate(-11.422536,14.789733)">
      <path
         sodipodi:nodetypes="ccccccccccccccccccccccccccccccccccccc"
         inkscape:connector-curvature="0"
         id="path829"
         d="m 19.37704,266.93218 c -1.346132,0.54961 -2.715693,0.58423 -4.142677,0.66817 H 14.29892 v 0.40091 c 0.609695,0.85787 0.699099,1.9355 0.935443,2.93996 0.354665,1.22977 -0.572172,2.06473 -1.202713,3.0736 l -1.069078,1.60362 c 0,0 -0.668174,-0.13364 -0.400905,0.66817 0.186198,0.93935 0.567917,1.79063 0.935444,2.6727 0.833097,2.53605 2.975687,1.81222 5.479025,1.60361 l 4.009043,-0.26726 1.870887,-0.40091 c -0.101787,-0.7364 -0.300764,-1.43683 -0.534539,-2.13815 l -1.069079,-0.13364 c 0.06393,-0.51363 0.003,-0.79726 -0.267269,-1.20271 l -1.870887,0.53454 c -1.664096,0.6425 -3.004101,0.57146 -4.677216,0.26726 l -0.935444,-0.4009 1.603617,-1.73725 c 1.74048,0.25662 2.978651,-0.29106 4.543582,-0.93544 l 1.603617,-0.53454 0.801809,-1.46999 c -0.83188,-0.072 -1.488051,-0.1806 -2.138156,-0.66817 l 0.133634,-0.4009 -2.672695,0.26727 h -1.069078 v -0.66818 l 0.133635,-0.53454 c 0.928993,-0.31021 1.967076,-0.40576 2.80633,-0.26727 1.076406,-0.49089 2.083873,-0.78844 3.0736,-0.53454 1.192264,-0.84764 1.601952,-1.46166 1.870886,-2.80633 l -0.534539,-0.13363 -0.935443,-0.26727 0.400904,-0.26727 -0.267269,-0.26727 c -0.711045,0.10892 -1.035529,-0.15581 -1.603618,-0.53454 -1.189276,0.8878 -2.498845,1.37926 -3.875408,1.87089 z"
         style="fill:#ffffff;fill-opacity:0;stroke:#151515;stroke-width:0.1;stroke-linecap:butt;stroke-linejoin:miter;stroke-miterlimit:4;stroke-dasharray:none;stroke-opacity:1" />
      <path
         inkscape:connector-curvature="0"
         id="path831"
         transform="matrix(0.26458333,0,0,0.26458333,0,247)"
         d="m 105.56055,67.757812 -1.51563,8.082032 3.53711,4.544922 -3.03125,2.021484 c 4.05692,8.216655 2.10343,14.605575 0.50586,23.23242 l -4.04102,17.17188 4.54493,4.54687 c 6.16991,-4.78027 15.39257,-10.64861 22.70312,-12.8418 13.8206,-6.75794 22.76015,-7.8566 15.6836,-22.009761 C 138.29593,80.702395 129.10792,77.34944 117.5957,72.451172 Z m 13.63672,17.677735 5.55664,1.009765 4.54492,3.535157 c 5.5026,9.354406 7.50475,7.327911 -2.01953,13.132811 l -14.14258,7.07031 4.04101,-24.242184 z"
         style="fill:#ffffff;fill-opacity:0;stroke:#151515;stroke-width:0.37795275;stroke-linecap:butt;stroke-linejoin:miter;stroke-miterlimit:4;stroke-dasharray:none;stroke-opacity:1" />
      <path
         sodipodi:nodetypes="ccccccccccccccccccccccccc"
         inkscape:connector-curvature="0"
         id="path837"
         d="m 43.030393,266.13037 c -2.008827,2.39996 -2.415054,5.05462 -3.073601,8.01809 -0.98605,5.27742 1.946391,8.00309 7.349914,4.94448 l 2.00452,-2.00452 c 2.64126,6.79523 7.678075,2.88037 9.354434,-2.40543 l 0.267268,-1.20271 1.469983,-5.47902 v -1.06908 H 59.2002 l -0.53454,-0.93544 c -0.845823,-0.58622 -1.168051,-0.19744 -2.004521,0.26726 -0.04206,2.80825 -0.809825,5.14358 -2.004523,7.75082 -3.653222,6.64923 -3.604836,-1.22748 -2.00452,-5.61266 l -0.534538,-0.26727 -0.400904,-0.80181 -0.80181,-0.13363 -0.267268,-0.40091 -3.474506,6.28084 -1.469983,2.00452 c -2.039719,2.8951 -3.500758,1.67023 -2.672694,-1.20272 1.010405,-2.69606 0.914939,-3.78944 3.073599,-5.74629 l -1.069078,-0.66817 -0.133633,-0.53454 -1.069078,0.13363 z"
         style="fill:#ffffff;fill-opacity:0;stroke:#151515;stroke-width:0.1;stroke-linecap:butt;stroke-linejoin:miter;stroke-miterlimit:4;stroke-dasharray:none;stroke-opacity:1" />
      <path
         sodipodi:nodetypes="cccccccccccccccccccccccc"
         inkscape:connector-curvature="0"
         id="path839"
         d="m 61.338356,266.53127 c 1.967382,-0.74293 3.264165,-0.10389 5.879928,-0.53453 0.722946,-0.40365 5.44403,-0.76755 4.944488,0.53453 l 0.935443,0.53454 0.133635,0.80181 -1.336349,1.20271 h -3.875408 l -1.069078,4.00905 c 0.06858,1.59068 -0.700912,2.86423 -1.336347,4.27631 l 1.202711,-0.13364 1.737255,1.46999 -0.400905,0.93544 c -1.078346,0.25259 -2.031681,0.5972 -2.939965,1.20271 -1.280964,-0.26796 -2.47913,0.0444 -3.741775,0.26727 0,0 -1.336347,0.40091 -1.870884,0 -0.534541,-0.4009 -0.534541,-0.8018 -1.069079,-1.33634 -0.53454,-0.53454 -0.267271,-2.00452 -0.267271,-2.00452 l 3.741774,0.26726 c 1.54258,-2.14501 2.164104,-4.59989 2.939966,-7.08264 l 0.267269,-1.73725 -2.004521,0.13363 h -0.668176 l -0.267269,-0.8018 z"
         style="fill:#ffffff;fill-opacity:0;stroke:#151515;stroke-width:0.1;stroke-linecap:butt;stroke-linejoin:miter;stroke-miterlimit:4;stroke-dasharray:none;stroke-opacity:1" />
      <path
         sodipodi:nodetypes="ccccccccccccccccccccc"
         inkscape:connector-curvature="0"
         id="path843"
         d="m 76.03818,265.8631 -2.539061,5.34539 c -0.679408,1.8986 -1.656538,3.61792 -2.672696,5.34539 l 0.400904,0.80181 -0.400904,0.26727 c 0.121883,1.49491 1.249919,1.54121 2.004523,2.93996 1.286456,-0.46524 1.602075,-0.79718 2.00452,-2.00452 l 0.935442,-2.40542 1.870888,2.27179 c 0.640553,0.77177 1.217032,1.29658 2.138156,1.60361 l 0.935445,0.66818 0.801806,-0.80181 c 1.947187,-1.42473 2.136275,-2.97667 2.672697,-5.21176 l 0.534537,-3.74177 c 1.600819,-5.30267 0.740062,-2.79051 -1.737251,-5.34539 l -1.069078,3.60814 c -0.126502,2.47879 -0.02591,3.83045 -1.445662,5.67612 -0.828471,0.78028 -1.256303,0.57545 -2.028841,-0.1971 -0.436743,-2.78456 0.533998,-4.6139 0.133636,-7.21627 l -0.133636,-0.40091 z"
         style="fill:#ffffff;fill-opacity:0;stroke:#151515;stroke-width:0.1;stroke-linecap:butt;stroke-linejoin:miter;stroke-miterlimit:4;stroke-dasharray:none;stroke-opacity:1" />
      <path
         sodipodi:nodetypes="caacaaaaaaaaccaaacaaaaaccacccccc"
         inkscape:connector-curvature="0"
         id="path845"
         d="m 97.152472,264.66039 c 0,0 -2.239111,1.31696 -3.34087,2.00452 -1.66662,1.04007 -3.522015,1.85226 -4.944486,3.20723 -0.993612,0.94646 -2.405424,3.34087 -2.405424,3.34087 0,0 -0.817454,1.56039 -0.80181,2.40543 0.02113,1.14158 0.438784,2.35867 1.202714,3.20723 0.666432,0.74027 1.707232,1.09138 2.672694,1.33635 1.296023,0.32884 2.686666,0.33145 4.009043,0.13364 1.630026,-0.24383 3.130292,-1.03488 4.677217,-1.60362 1.257743,-0.46242 2.62077,-0.73576 3.74177,-1.46999 0.42159,-0.27613 0.87622,-0.60347 1.06908,-1.06907 0.18751,-0.4527 0.2271,-1.0358 0,-1.46999 -0.90486,-1.73002 -4.81085,-3.34086 -4.81085,-3.34086 l -2.939965,1.60361 c 0,0 0.688641,0.27365 0.935442,0.53454 0.273802,0.28944 0.405237,0.69222 0.53454,1.06908 0.07371,0.21484 0.267702,0.48482 0.133636,0.66817 -0.23809,0.32561 -1.202714,0.13364 -1.202714,0.13364 0,0 -1.563884,0.75674 -2.405425,0.93544 -0.916079,0.19453 -1.870093,0.11136 -2.806332,0.13364 -0.311726,0.007 -0.675127,0.17165 -0.935442,0 -0.283216,-0.18675 -0.410871,-0.59635 -0.400905,-0.93545 0.0117,-0.39825 0.287786,-0.75626 0.534541,-1.06907 0.900744,-1.14187 3.340867,-2.80633 3.340867,-2.80633 l 2.271792,-1.46999 c 0,0 2.141991,-0.91987 3.073598,-1.60361 0.355501,-0.26092 0.935445,-0.93545 0.935445,-0.93545 l -0.668173,-0.26727 -0.267272,-1.06908 -0.801806,-0.26726 -0.400905,-0.80181 z"
         style="fill:#ffffff;fill-opacity:0;stroke:#151515;stroke-width:0.1;stroke-linecap:butt;stroke-linejoin:miter;stroke-miterlimit:4;stroke-dasharray:none;stroke-opacity:1" />
    </g>
  </g>
</svg>
