<?xml version="1.0" encoding="UTF-8" standalone="no"?>
<!-- Created with Inkscape (http://www.inkscape.org/) -->

<svg
   xmlns:dc="http://purl.org/dc/elements/1.1/"
   xmlns:cc="http://creativecommons.org/ns#"
   xmlns:rdf="http://www.w3.org/1999/02/22-rdf-syntax-ns#"
   xmlns:svg="http://www.w3.org/2000/svg"
   xmlns="http://www.w3.org/2000/svg"
   xmlns:sodipodi="http://sodipodi.sourceforge.net/DTD/sodipodi-0.dtd"
   xmlns:inkscape="http://www.inkscape.org/namespaces/inkscape"
   width="304.89999"
   height="70"
   viewBox="0 0 80.671455 18.520833"
   version="1.1"
   id="svg4548"
   inkscape:version="0.92.3 (2405546, 2018-03-11)"
   sodipodi:docname="logo-lastname.svg">
  <defs
     id="defs4542" />
  <sodipodi:namedview
     id="base"
     pagecolor="#ffffff"
     bordercolor="#666666"
     borderopacity="1.0"
     inkscape:pageopacity="0.0"
     inkscape:pageshadow="2"
     inkscape:zoom="1.4"
     inkscape:cx="499.27553"
     inkscape:cy="-82.662001"
     inkscape:document-units="mm"
     inkscape:current-layer="layer1"
     showgrid="false"
     units="px"
     inkscape:window-width="2560"
     inkscape:window-height="1377"
     inkscape:window-x="-8"
     inkscape:window-y="-8"
     inkscape:window-maximized="1" />
  <metadata
     id="metadata4545">
    <rdf:RDF>
      <cc:Work
         rdf:about="">
        <dc:format>image/svg+xml</dc:format>
        <dc:type
           rdf:resource="http://purl.org/dc/dcmitype/StillImage" />
        <dc:title></dc:title>
      </cc:Work>
    </rdf:RDF>
  </metadata>
  <g
     inkscape:label="Layer 1"
     inkscape:groupmode="layer"
     id="layer1"
     transform="translate(0,-278.47917)">
    <g
       style="fill:#ffffff;fill-opacity:0;stroke:#151515;stroke-width:0.1;stroke-miterlimit:4;stroke-dasharray:none;stroke-opacity:1"
       id="g1566"
       transform="translate(-105.39746,15.326565)">
      <path
         inkscape:connector-curvature="0"
         id="path847"
         transform="matrix(0.26458333,0,0,0.26458333,0,247)"
         d="m 433.35547,65.738281 c 0,0 -1.46793,5.350446 -3.03125,7.576172 -1.16523,1.658986 -2.76821,3.064688 -4.54492,4.041016 -1.07418,0.590286 -2.34865,1.31723 -3.53516,1.009765 -1.15242,-0.298582 -2.52539,-2.52539 -2.52539,-2.52539 l -8.58594,14.140625 c 0,0 0.21014,2.710697 0,4.041015 -1.0227,6.468356 -3.14247,12.825866 -6.0625,18.687496 -0.91634,1.8395 -2.35662,3.3672 -3.53515,5.05079 l 2.02148,2.02148 1.00977,3.0293 4.54492,1.01172 4.54687,-2.52539 c 0,0 3.80443,-0.0964 4.03907,-1.51563 0.82858,-5.01131 -1.05128,-10.25198 3.53711,-14.64844 0,0 0.19725,8.5883 3.02929,8.08203 2.92589,-0.52305 12.10117,-7.1121 13.63672,-4.04101 0,0 3.43399,-0.7082 4.04102,0.50586 0.60703,1.21406 -2.01954,3.53515 -2.01953,3.53515 l -6.06055,2.52539 3.53515,3.53516 2.01954,4.54688 c 6.16278,0.9499 8.58462,-2.78054 13.63671,-5.05079 2.15543,-0.96858 1.10957,-4.78765 0.50586,-7.07226 -0.46526,-1.76066 -3.03125,-4.54492 -3.03125,-4.54492 0,0 5.62787,-3.10483 7.57618,-5.55664 0.79766,-1.00385 1.51562,-3.53516 1.51562,-3.53516 h -4.04102 l -0.5039,-2.019531 -3.03125,1.009765 V 95.03125 c -5.26594,-0.843591 -5.23318,-9.640946 -6.56641,-14.140625 l -2.52539,-10.607422 z m -1.00977,22.728516 4.04102,10.605469 -12.12305,1.009764 z"
         style="fill:#ffffff;fill-opacity:0;stroke:#151515;stroke-width:0.37795275;stroke-linecap:butt;stroke-linejoin:miter;stroke-miterlimit:4;stroke-dasharray:none;stroke-opacity:1" />
      <path
         inkscape:connector-curvature="0"
         id="path851"
         transform="matrix(0.26458333,0,0,0.26458333,0,247)"
         d="m 491.94336,66.242188 c 0,0 -7.31586,0.01251 -10.10156,2.021484 -3.30342,2.380989 -3.50461,7.435465 -6.06055,10.605469 -1.42171,1.763263 -2.82524,4.125722 -5.05078,4.546875 -1.41339,0.26759 -4.03906,-1.515625 -4.03906,-1.515625 l -3.03125,14.646484 -3.53516,19.193355 h -1.51562 c 0,0 1.87671,3.1366 3.03124,4.54493 1.50951,1.84131 5.05079,5.05078 5.05079,5.05078 l 3.53515,-2.52539 v 2.52539 l 3.0293,-4.03906 1.51562,-7.07227 c 0,0 3.74767,4.08629 6.06055,5.55664 2.61207,1.66057 5.66897,2.49994 8.58594,3.53516 3.31298,1.17577 6.77029,1.90835 10.10156,3.03125 1.36309,0.45947 4.04102,1.51367 4.04102,1.51367 l 6.5664,-3.0293 2.52539,-1.00976 -3.53515,-2.52539 -2.02149,-9.0918 c 0,0 -5.3079,2.17744 -8.08008,2.01953 -4.30839,-0.24529 -8.49481,-2.20865 -12.12304,-4.54492 -1.60146,-1.03121 -4.03906,-4.04102 -4.03906,-4.04102 0,0 10.69087,-1.73401 15.15234,-4.54492 2.11759,-1.334173 3.75693,-3.414178 5.05078,-5.556641 1.0187,-1.686841 1.67764,-3.615928 2.01953,-5.55664 0.32126,-1.823887 0.6714,-3.828729 0,-5.554688 -0.99356,-2.554242 -5.11496,-3.35569 -5.55664,-6.060547 -0.26721,-1.636459 2.02149,-4.546875 2.02149,-4.546875 0,0 -5.57915,-1.591383 -7.57618,-3.535156 -1.07909,-1.050331 -2.02148,-4.041015 -2.02148,-4.041015 z m -4.03906,15.152343 6.56445,8.082031 -17.17187,4.544922 z"
         style="fill:#ffffff;fill-opacity:0;stroke:#151515;stroke-width:0.37795275;stroke-linecap:butt;stroke-linejoin:miter;stroke-miterlimit:4;stroke-dasharray:none;stroke-opacity:1" />
      <path
         sodipodi:nodetypes="ccccaaaaacccccaccaacacccccccccccccaccccccaacccccaaaccc"
         inkscape:connector-curvature="0"
         id="path855"
         d="m 134.30293,265.4622 v 2.40542 l 1.06908,2.00452 4.27632,-1.06907 c 0,0 -0.87082,3.03511 -1.33635,4.54358 -0.16566,0.53679 -0.35748,1.06536 -0.51833,1.60361 -0.1984,0.66393 -0.53385,1.3118 -0.55075,2.00453 -0.0156,0.63875 0.11136,1.30985 0.41711,1.87088 0.26949,0.49449 0.68504,0.94645 1.18651,1.20271 0.52172,0.26661 1.73725,0.26728 1.73725,0.26728 l 0.13363,-0.40091 0.40091,-0.93544 v -0.66818 l -0.93544,-0.4009 c 0,0 -0.0822,-1.67831 0.26726,-2.40543 0.43663,-0.90846 2.13816,-2.13815 2.13816,-2.13815 l -0.53454,-0.93545 c 0,0 0.53197,-3.12083 1.60362,-4.14267 0.20389,-0.19442 0.525,-0.21485 0.80181,-0.26727 1.66545,-0.31541 5.07812,-0.26727 5.07812,-0.26727 0,0 0.38107,0.53861 0.66817,0.66817 0.6509,0.29373 2.13816,0.13364 2.13816,0.13364 l -2.6727,7.75081 -2.67269,0.66818 h -0.53454 l -0.66818,0.53453 1.60362,2.40543 2.53906,-0.53454 1.60362,-0.13363 1.60362,0.53454 v -0.66818 l 1.73725,-0.26727 1.06908,-0.4009 -0.26727,-1.60362 c 0,0 -0.60313,-0.33269 -0.93545,-0.4009 -0.39272,-0.0806 -1.20271,0 -1.20271,0 l 0.80181,-2.40543 1.20271,-6.01356 4.14268,-0.66818 1.06908,-0.66817 -0.66818,-0.66817 c 0,0 -1.61933,-1.07397 -2.53906,-1.33635 -0.60123,-0.17152 -1.24572,-0.12493 -1.87088,-0.13364 -1.0254,-0.0143 -3.0736,0.13364 -3.0736,0.13364 l -1.73725,0.26727 -1.06908,0.13363 -0.13364,-0.53454 h -1.20271 c 0,0 -0.76411,-0.52462 -1.20271,-0.53454 -1.0999,-0.0249 -2.01301,0.91025 -3.0736,1.20272 -0.52241,0.14406 -1.08234,0.41539 -1.60362,0.26727 -0.45549,-0.12942 -1.06908,-0.93545 -1.06908,-0.93545 l -1.06908,0.80181 z"
         style="fill:#ffffff;fill-opacity:0;stroke:#151515;stroke-width:0.1;stroke-linecap:butt;stroke-linejoin:miter;stroke-miterlimit:4;stroke-dasharray:none;stroke-opacity:1" />
      <path
         sodipodi:nodetypes="caaaaaaaccccaacccccccccc"
         inkscape:connector-curvature="0"
         id="path857"
         d="m 167.31072,264.79402 c 0,0 -1.89847,0.83709 -2.80633,1.33635 -1.61359,0.88736 -3.34323,1.67049 -4.67722,2.93996 -0.78778,0.74968 -1.50112,1.65001 -1.87088,2.6727 -0.36476,1.00887 -0.53521,2.16845 -0.26727,3.20723 0.36102,1.39967 1.23402,2.76124 2.40542,3.60814 1.08597,0.78513 2.55445,0.84367 3.87541,1.06908 1.27642,0.21781 2.5932,0.44791 3.87541,0.26727 0.51629,-0.0727 1.46998,-0.53454 1.46998,-0.53454 l -0.4009,-2.00452 -0.4009,-0.93544 0.13363,-0.93545 c 0,0 -0.75875,0.55314 -1.20271,0.66818 -0.94866,0.24582 -1.9616,0.0563 -2.93997,0 -1.16393,-0.0669 -3.4745,-0.40091 -3.4745,-0.40091 l 0.66817,-1.60361 -0.13363,-1.06908 c 0.86737,-2.14537 2.55833,-2.47884 4.00904,-3.34087 l 3.4745,-1.33635 1.06908,-1.87089 -1.20271,-0.4009 0.4009,-0.66817 h -0.93544 z"
         style="fill:#ffffff;fill-opacity:0;stroke:#151515;stroke-width:0.1;stroke-linecap:butt;stroke-linejoin:miter;stroke-miterlimit:4;stroke-dasharray:none;stroke-opacity:1" />
      <path
         inkscape:connector-curvature="0"
         id="path859"
         transform="matrix(0.26458333,0,0,0.26458333,0,247)"
         d="m 674.27734,67.253906 c 0,0 -3.86204,5.328933 -6.5664,7.070313 -1.79052,1.152907 -6.06055,2.019531 -6.06055,2.019531 l -8.58594,12.626953 -1.01172,1.515625 1.01172,4.041016 c 0,0 -7.6405,12.313556 -9.59765,19.193356 -0.50884,1.78863 -0.50391,5.55469 -0.50391,5.55469 0,0 2.58153,2.18857 4.03906,3.03125 2.22006,1.28353 7.07227,3.0293 7.07227,3.0293 0,0 1.49255,-2.28429 2.01953,-3.53516 0.95172,-2.25906 1.26051,-4.74008 2.02148,-7.07031 1.05827,-3.24061 3.53516,-9.59766 3.53516,-9.59766 l 3.53516,8.08203 c 0,0 4.35829,-1.10388 6.5664,-1.51562 2.34063,-0.43646 7.07032,-1.00977 7.07032,-1.00977 l 3.03125,-0.50586 -3.03125,6.56641 -5.05079,-1.00977 3.53516,3.03125 c 0,0 0.18113,2.63397 1.01172,3.53516 1.94562,2.11064 8.06055,3.0293 8.06055,3.0293 0,0 -0.57819,-1.27109 -0.42383,-1.90235 0.54077,-2.21128 2.88878,-3.51949 4.39258,-5.22851 1.34282,-1.52606 3.49925,-2.55292 4.13281,-4.48438 0.47516,-1.44861 -0.79326,-3.04965 -0.50586,-4.54687 0.53953,-2.8108 4.04101,-7.57617 4.04101,-7.57617 l 2.01954,-4.544926 -6.06055,-0.505859 0.50586,-2.525391 c 0,0 -4.48921,0.777052 -6.06055,-0.503906 -2.31235,-1.885001 -2.04073,-5.642555 -2.52734,-8.585937 -0.65964,-3.989972 -0.50391,-12.123047 -0.50391,-12.123047 l -1.00976,-3.535156 z m 0,20.707032 4.04102,10.607421 -13.13281,2.525391 1.00976,-2.021484 z"
         style="fill:#ffffff;fill-opacity:0;stroke:#151515;stroke-width:0.37795275;stroke-linecap:butt;stroke-linejoin:miter;stroke-miterlimit:4;stroke-dasharray:none;stroke-opacity:1" />
    </g>
  </g>
</svg>
